<svg id="Capa_1" data-name="Capa 1" xmlns="http://www.w3.org/2000/svg" viewBox="0 0 250 125"><defs><style>.cls-1{fill:#00a4e0;}.cls-2{fill:#3c3c3b;}</style></defs><title>2</title><path class="cls-1" d="M64.23,88A6,6,0,0,0,61,87.09a4.31,4.31,0,1,0,.1,8.6,6.28,6.28,0,0,0,3.39-.82l-.28,3a7.24,7.24,0,0,1-3.6.73c-3.62,0-7.5-2.47-7.5-7.19s3.9-7.2,7.5-7.2a8.13,8.13,0,0,1,3.9.84Z"/><path class="cls-1" d="M72.92,98.59a7.2,7.2,0,1,1,7.41-7.21A7.2,7.2,0,0,1,72.92,98.59Zm0-11.46a4.26,4.26,0,1,0,4,4.25A4.09,4.09,0,0,0,72.92,87.13Z"/><path class="cls-1" d="M86.91,98.27H82.28V84.53h4.63c4,0,7.37,2.58,7.37,6.87S90.88,98.27,86.91,98.27Zm-.39-10.88h-1v8h1c2.39,0,4.42-1.34,4.42-4S88.91,87.39,86.52,87.39Z"/><path class="cls-1" d="M96.23,98.27V84.53h8v2.73H99.57V90h3.81v2.78H99.57v2.75h5.27v2.74Z"/><path class="cls-2" d="M114.65,87.26V90h4v2.78h-4v5.49h-3.34V84.53h8.21v2.73Z"/><path class="cls-2" d="M129,98.27l-1.07-2.86h-4.53l-1,2.86h-3.15l5.41-13.85h2.3l5.41,13.85Zm-2.88-8.14c-.15-.39-.3-.91-.43-1.4h-.05a9.27,9.27,0,0,1-.43,1.4l-1,2.75h2.89Z"/><path class="cls-2" d="M143.75,88a6,6,0,0,0-3.27-.86,4.31,4.31,0,1,0,.1,8.6,6.28,6.28,0,0,0,3.39-.82l-.28,3a7.24,7.24,0,0,1-3.6.73c-3.62,0-7.5-2.47-7.5-7.19s3.9-7.2,7.5-7.2A8.13,8.13,0,0,1,144,85Z"/><path class="cls-2" d="M152.31,87.2V98.27H149V87.17h-4.16V84.53h11.62V87.2Z"/><path class="cls-2" d="M164.12,98.59a7.2,7.2,0,1,1,7.41-7.21A7.2,7.2,0,0,1,164.12,98.59Zm0-11.46a4.26,4.26,0,1,0,4,4.25A4.09,4.09,0,0,0,164.12,87.13Z"/><path class="cls-2" d="M181.58,98.27l-3.7-5.41h-1.19v5.41h-3.21V84.53h5.13a4.18,4.18,0,0,1,4.44,4.15,3.79,3.79,0,0,1-2.11,3.45l4.37,6.14Zm-3.47-11.12h-1.42v3.08h1.42a1.55,1.55,0,1,0,0-3.08Z"/><path class="cls-2" d="M191.82,92.13v6.14h-3.23V92.19l-5.13-7.66H187l2.26,3.31a18.76,18.76,0,0,1,1,1.64h0c.3-.54.74-1.19,1-1.64l2.26-3.31h3.32Z"/><path class="cls-2" d="M62.34,110.13a2.73,2.73,0,0,1-1.41-.37l-.18-.9a2.76,2.76,0,0,0,1.63.55c.61,0,1-.34,1-.84s-.29-.78-1-1c-1-.31-1.48-.86-1.48-1.61a1.52,1.52,0,0,1,1.72-1.48,2.08,2.08,0,0,1,1.18.32l-.16.68a1.93,1.93,0,0,0-1.06-.32.8.8,0,0,0-.89.74c0,.36.31.65.88.85.94.32,1.58.82,1.58,1.74S63.57,110.13,62.34,110.13Z"/><path class="cls-2" d="M67.7,110.13a2.83,2.83,0,1,1,2.88-2.83A2.81,2.81,0,0,1,67.7,110.13Zm0-4.93a2.11,2.11,0,0,0,0,4.21,2.11,2.11,0,0,0,0-4.21Z"/><path class="cls-2" d="M72.3,105.3v1.64h1.84v.71H72.3V110h-.82v-5.44h3v.71Z"/><path class="cls-2" d="M77.46,105.3V110h-.83V105.3H74.89v-.71h4.32v.71Z"/><path class="cls-2" d="M85.14,110.1h-.28l-1-2.9c-.15-.42-.3-.87-.47-1.46h0c-.17.59-.32,1.05-.47,1.46l-1,2.9H81.6l-1.93-5.51h.83l.88,2.5c.12.36.29.81.4,1.25h0c.12-.44.27-.88.4-1.25l.86-2.5h.71l.88,2.5c.12.35.26.81.38,1.25h0c.11-.44.28-.9.4-1.25l.88-2.5h.76Z"/><path class="cls-2" d="M91,110l-.58-1.41H88.34L87.76,110h-.82l2.32-5.52h.3L91.88,110Zm-1.4-3.39a6.5,6.5,0,0,1-.23-.67h0a4.76,4.76,0,0,1-.23.67L88.62,108h1.55Z"/><path class="cls-2" d="M95.9,110l-1.72-2.39h-.76V110H92.6v-5.44h1.72A1.55,1.55,0,0,1,96,106.12a1.44,1.44,0,0,1-1,1.39L96.86,110Zm-1.72-4.74h-.76v1.65h.76a.83.83,0,1,0,0-1.65Z"/><path class="cls-2" d="M97.33,110v-5.44h2.92v.71h-2.1v1.64h1.76v.71H98.15v1.67h2.4V110Z"/><path class="cls-2" d="M103.24,110v-5.44h2.93v.71h-2.1v1.64h1.76v.71h-1.76v1.67h2.4V110Z"/><path class="cls-2" d="M111.82,110.14l-2.54-2.78c-.41-.44-.88-1-1.25-1.43h0c0,.49,0,1,0,1.36V110h-.83v-5.44h.57l2.33,2.56c.32.35.82.89,1.15,1.3h0c0-.42,0-.88,0-1.28v-2.57h.82v5.55Z"/><path class="cls-2" d="M115.94,110.13a2.83,2.83,0,1,1,0-5.65,3.36,3.36,0,0,1,1.75.43l-.15.72a2.82,2.82,0,0,0-1.51-.43,2.11,2.11,0,1,0,0,4.21,2,2,0,0,0,1.15-.28V108H115.9v-.67h2v2.21A3,3,0,0,1,115.94,110.13Z"/><path class="cls-2" d="M119.1,110v-5.44h.83V110Z"/><path class="cls-2" d="M125.79,110.14l-2.55-2.78c-.41-.44-.87-1-1.25-1.43h0c0,.49,0,1,0,1.36V110h-.82v-5.44h.57l2.33,2.56c.31.35.81.89,1.14,1.3h0c0-.42,0-.88,0-1.28v-2.57H126v5.55Z"/><path class="cls-2" d="M127.14,110v-5.44h2.93v.71H128v1.64h1.76v.71H128v1.67h2.4V110Z"/><path class="cls-2" d="M131.1,110v-5.44H134v.71h-2.1v1.64h1.76v.71h-1.76v1.67h2.4V110Z"/><path class="cls-2" d="M138.36,110l-1.71-2.39h-.77V110h-.82v-5.44h1.72a1.55,1.55,0,0,1,1.64,1.53,1.44,1.44,0,0,1-1,1.39l1.86,2.52Zm-1.72-4.74h-.76v1.65h.76a.83.83,0,1,0,0-1.65Z"/><path class="cls-2" d="M139.91,110v-5.44h.83V110Z"/><path class="cls-2" d="M146.6,110.14l-2.55-2.78c-.41-.44-.87-1-1.25-1.43h0c0,.49,0,1,0,1.36V110H142v-5.44h.57l2.33,2.56c.31.35.81.89,1.14,1.3h0c0-.42,0-.88,0-1.28v-2.57h.83v5.55Z"/><path class="cls-2" d="M150.72,110.13a2.83,2.83,0,1,1-.05-5.65,3.34,3.34,0,0,1,1.75.43l-.15.72a2.82,2.82,0,0,0-1.51-.43,2.08,2.08,0,0,0-2.19,2.12,2.06,2.06,0,0,0,2.2,2.09,2,2,0,0,0,1.15-.28V108h-1.25v-.67h2v2.21A3.06,3.06,0,0,1,150.72,110.13Z"/><path class="cls-2" d="M157,110.13a2.69,2.69,0,0,1-1.4-.37l-.19-.9a2.81,2.81,0,0,0,1.64.55c.6,0,1-.34,1-.84s-.29-.78-.94-1c-1-.31-1.49-.86-1.49-1.61a1.53,1.53,0,0,1,1.72-1.48,2.15,2.15,0,0,1,1.19.32l-.16.68a2,2,0,0,0-1.06-.32.79.79,0,0,0-.89.74c0,.36.3.65.87.85.95.32,1.58.82,1.58,1.74S158.24,110.13,157,110.13Z"/><path class="cls-2" d="M163.88,105.55a2.74,2.74,0,0,0-1.36-.35,2.11,2.11,0,1,0,0,4.21,2.89,2.89,0,0,0,1.5-.34l-.17.79a2.89,2.89,0,1,1-1.42-5.38,3.22,3.22,0,0,1,1.6.36Z"/><path class="cls-2" d="M164.94,110v-5.44h.83V110Z"/><path class="cls-2" d="M167,110v-5.44h2.92v.71h-2.1v1.64h1.77v.71h-1.77v1.67h2.4V110Z"/><path class="cls-2" d="M175.59,110.14,173,107.36c-.4-.44-.88-1-1.25-1.43h0c0,.49,0,1,0,1.36V110H171v-5.44h.57l2.34,2.56c.31.35.81.89,1.14,1.3h0c0-.42,0-.88,0-1.28v-2.57h.83v5.55Z"/><path class="cls-2" d="M181.12,105.55a2.78,2.78,0,0,0-1.36-.35,2.11,2.11,0,1,0,0,4.21,2.88,2.88,0,0,0,1.49-.34l-.17.79a2.89,2.89,0,1,1-1.42-5.38,3.19,3.19,0,0,1,1.6.36Z"/><path class="cls-2" d="M182.05,110v-5.44H185v.71h-2.1v1.64h1.76v.71h-1.76v1.67h2.4V110Z"/><path class="cls-2" d="M187.31,110.13a2.69,2.69,0,0,1-1.4-.37l-.19-.9a2.81,2.81,0,0,0,1.64.55c.6,0,1-.34,1-.84s-.29-.78-.94-1c-1-.31-1.49-.86-1.49-1.61a1.53,1.53,0,0,1,1.73-1.48,2.14,2.14,0,0,1,1.18.32l-.16.68a2,2,0,0,0-1.06-.32.8.8,0,0,0-.89.74c0,.36.3.65.87.85,1,.32,1.59.82,1.59,1.74S188.54,110.13,187.31,110.13Z"/><path class="cls-1" d="M88.74,46.58v-14l27.92-17.76v14l-16,10.41V40l7,4.72v14Z"/><path class="cls-2" d="M110.68,60.54v-14l27.91-17.76v14l-16,10.41v.76l16,10.4v14Z"/></svg>